<svg xmlns="http://www.w3.org/2000/svg" xmlns:xlink="http://www.w3.org/1999/xlink" width="3000" zoomAndPan="magnify" viewBox="0 0 2250 1124.99995" height="1500" preserveAspectRatio="xMidYMid meet" version="1.2"><defs/><g id="c56281b711"><g style="fill:#806600;fill-opacity:1;"><g transform="translate(39.070218, 705.439264)"><path style="stroke:none" d="M 149.816406 -213.6875 C 141.148438 -213.6875 133.597656 -212.125 127.164062 -209.003906 C 120.894531 -205.960938 115.480469 -201.320312 110.925781 -195.082031 C 100.847656 -181.273438 95.808594 -161.347656 95.808594 -135.300781 C 95.808594 -108.144531 100.546875 -88.25 110.023438 -75.625 C 114.226562 -70.023438 119.464844 -65.832031 125.738281 -63.042969 C 132.425781 -60.074219 140.453125 -58.585938 149.816406 -58.585938 C 167.296875 -58.585938 188.855469 -63.09375 214.492188 -72.109375 L 233.527344 -78.800781 L 233.527344 -0.707031 L 224.730469 2.957031 C 200.640625 12.996094 173.867188 18.015625 144.417969 18.015625 C 122.808594 18.015625 103.589844 14.679688 86.761719 8.007812 C 69.480469 1.152344 54.835938 -9.144531 42.832031 -22.886719 C 19.511719 -49.585938 7.851562 -87.183594 7.851562 -135.671875 C 7.851562 -166.144531 13.476562 -193.003906 24.726562 -216.25 C 36.28125 -240.125 52.949219 -258.472656 74.730469 -271.289062 C 96.261719 -283.957031 121.289062 -290.292969 149.816406 -290.292969 C 178.410156 -290.292969 207.019531 -283.433594 235.644531 -269.71875 L 247.675781 -263.957031 L 218.511719 -190.460938 L 204.71875 -197.019531 C 195.011719 -201.640625 185.25 -205.660156 175.4375 -209.089844 C 166.664062 -212.15625 158.125 -213.6875 149.816406 -213.6875 Z M 149.816406 -242.273438 C 161.359375 -242.273438 173.042969 -240.210938 184.867188 -236.078125 C 195.648438 -232.3125 206.359375 -227.898438 217 -222.835938 L 210.859375 -209.929688 L 197.574219 -215.203125 L 216.183594 -262.101562 L 229.46875 -256.828125 L 223.292969 -243.9375 C 198.570312 -255.78125 174.078125 -261.703125 149.816406 -261.703125 C 126.480469 -261.703125 106.285156 -256.683594 89.230469 -246.648438 C 72.421875 -236.761719 59.5 -222.476562 50.460938 -203.796875 C 41.113281 -184.484375 36.441406 -161.777344 36.441406 -135.671875 C 36.441406 -94.332031 45.75 -63.007812 64.363281 -41.691406 C 82.484375 -20.945312 109.167969 -10.570312 144.417969 -10.570312 C 170.058594 -10.570312 193.164062 -14.859375 213.738281 -23.429688 L 219.234375 -10.234375 L 204.941406 -10.234375 L 204.941406 -58.625 L 219.234375 -58.625 L 223.976562 -45.140625 C 195.269531 -35.046875 170.550781 -30 149.816406 -30 C 136.410156 -30 124.515625 -32.304688 114.132812 -36.917969 C 103.328125 -41.714844 94.335938 -48.898438 87.15625 -58.464844 C 73.867188 -76.175781 67.222656 -101.785156 67.222656 -135.300781 C 67.222656 -167.566406 74.09375 -193.109375 87.835938 -211.9375 C 95.191406 -222.011719 104.140625 -229.609375 114.683594 -234.722656 C 125.058594 -239.757812 136.769531 -242.273438 149.816406 -242.273438 Z M 149.816406 -242.273438 "/></g></g><g style="fill:#806600;fill-opacity:1;"><g transform="translate(281.931763, 705.439264)"><path style="stroke:none" d="M 89.296875 -104.40625 C 89.296875 -86.601562 91.921875 -73.605469 97.175781 -65.410156 C 99.09375 -62.417969 101.585938 -60.1875 104.648438 -58.722656 C 108.203125 -57.019531 112.710938 -56.167969 118.179688 -56.167969 C 123.570312 -56.167969 128.011719 -57.007812 131.496094 -58.683594 C 134.480469 -60.121094 136.902344 -62.308594 138.761719 -65.246094 C 143.921875 -73.394531 146.503906 -86.449219 146.503906 -104.40625 C 146.503906 -122.175781 143.921875 -135.023438 138.765625 -142.953125 C 136.898438 -145.824219 134.449219 -147.96875 131.417969 -149.390625 C 127.851562 -151.0625 123.3125 -151.898438 117.804688 -151.898438 C 112.359375 -151.898438 107.867188 -151.070312 104.332031 -149.414062 C 101.320312 -148 98.878906 -145.867188 97.011719 -143.011719 C 91.867188 -135.152344 89.296875 -122.285156 89.296875 -104.40625 Z M 60.707031 -104.40625 C 60.707031 -127.96875 64.835938 -146.054688 73.089844 -158.667969 C 77.921875 -166.046875 84.289062 -171.589844 92.199219 -175.296875 C 99.578125 -178.757812 108.113281 -180.488281 117.804688 -180.488281 C 127.558594 -180.488281 136.144531 -178.75 143.554688 -175.273438 C 151.503906 -171.546875 157.898438 -165.96875 162.726562 -158.542969 C 170.96875 -145.875 175.089844 -127.828125 175.089844 -104.40625 C 175.089844 -80.921875 171.03125 -62.773438 162.917969 -49.953125 C 158.136719 -42.40625 151.796875 -36.730469 143.898438 -32.925781 C 136.492188 -29.363281 127.921875 -27.582031 118.179688 -27.582031 C 108.382812 -27.582031 99.757812 -29.367188 92.300781 -32.9375 C 84.351562 -36.742188 77.953125 -42.425781 73.109375 -49.976562 C 64.84375 -62.875 60.707031 -81.019531 60.707031 -104.40625 Z M 233.15625 -104.40625 C 233.15625 -66.773438 222.9375 -37.03125 202.503906 -15.175781 C 181.8125 6.953125 153.457031 18.015625 117.433594 18.015625 C 94.921875 18.015625 74.933594 13.011719 57.472656 3.003906 C 39.714844 -7.175781 26.097656 -21.742188 16.621094 -40.691406 C 7.425781 -59.082031 2.828125 -80.320312 2.828125 -104.40625 C 2.828125 -142.179688 12.992188 -171.871094 33.324219 -193.480469 C 53.886719 -215.339844 82.296875 -226.269531 118.550781 -226.269531 C 141.046875 -226.269531 161.023438 -221.304688 178.476562 -211.371094 C 196.238281 -201.261719 209.859375 -186.796875 219.34375 -167.972656 C 228.550781 -149.695312 233.15625 -128.507812 233.15625 -104.40625 Z M 204.566406 -104.40625 C 204.566406 -123.976562 200.984375 -140.878906 193.8125 -155.109375 C 186.921875 -168.792969 177.09375 -179.265625 164.335938 -186.527344 C 151.265625 -193.964844 136.003906 -197.683594 118.550781 -197.683594 C 90.535156 -197.683594 69.066406 -189.753906 54.144531 -173.894531 C 38.992188 -157.785156 31.414062 -134.625 31.414062 -104.40625 C 31.414062 -84.820312 35.007812 -67.84375 42.191406 -53.476562 C 49.089844 -39.675781 58.921875 -29.117188 71.6875 -21.800781 C 84.746094 -14.3125 99.996094 -10.570312 117.433594 -10.570312 C 145.183594 -10.570312 166.582031 -18.613281 181.621094 -34.699219 C 196.917969 -51.0625 204.566406 -74.296875 204.566406 -104.40625 Z M 204.566406 -104.40625 "/></g></g><g style="fill:#806600;fill-opacity:1;"><g transform="translate(517.907527, 705.439264)"><path style="stroke:none" d="M 221.839844 14.292969 L 150.785156 14.292969 L 150.785156 -121.527344 C 150.785156 -133.5 148.996094 -142 145.421875 -147.027344 C 144.273438 -148.640625 142.777344 -149.859375 140.925781 -150.675781 C 138.515625 -151.738281 135.398438 -152.273438 131.578125 -152.273438 C 125.734375 -152.273438 120.890625 -151.386719 117.054688 -149.613281 C 113.757812 -148.089844 111.085938 -145.792969 109.042969 -142.726562 C 106.546875 -138.984375 104.601562 -133.640625 103.207031 -126.691406 C 101.625 -118.828125 100.832031 -109.226562 100.832031 -97.890625 L 100.832031 14.292969 L 15.484375 14.292969 L 15.484375 -222.363281 L 83.910156 -222.363281 L 94.511719 -185.394531 L 80.769531 -181.453125 L 80.769531 -195.75 L 83.933594 -195.75 L 83.933594 -181.453125 L 71.839844 -189.070312 C 79.667969 -201.503906 90.410156 -210.886719 104.070312 -217.21875 C 117.082031 -223.253906 131.710938 -226.269531 147.957031 -226.269531 C 176.21875 -226.269531 198.023438 -218.253906 213.367188 -202.226562 C 228.546875 -186.375 236.132812 -164.1875 236.132812 -135.671875 L 236.132812 14.292969 Z M 221.839844 -14.292969 L 221.839844 0 L 207.546875 0 L 207.546875 -135.671875 C 207.546875 -156.535156 202.601562 -172.132812 192.71875 -182.457031 C 183 -192.605469 168.078125 -197.683594 147.957031 -197.683594 C 135.914062 -197.683594 125.292969 -195.550781 116.09375 -191.285156 C 107.546875 -187.320312 100.859375 -181.503906 96.03125 -173.839844 L 91.824219 -167.160156 L 70 -167.160156 L 59.398438 -204.128906 L 73.140625 -208.066406 L 73.140625 -193.773438 L 29.777344 -193.773438 L 29.777344 -208.066406 L 44.070312 -208.066406 L 44.070312 0 L 29.777344 0 L 29.777344 -14.292969 L 86.539062 -14.292969 L 86.539062 0 L 72.246094 0 L 72.246094 -97.890625 C 72.246094 -125.34375 76.582031 -145.574219 85.253906 -158.582031 C 90.28125 -166.125 96.882812 -171.785156 105.0625 -175.5625 C 112.703125 -179.09375 121.542969 -180.859375 131.578125 -180.859375 C 139.417969 -180.859375 146.386719 -179.515625 152.472656 -176.828125 C 159.121094 -173.890625 164.539062 -169.476562 168.726562 -163.585938 C 175.824219 -153.601562 179.371094 -139.582031 179.371094 -121.527344 L 179.371094 0 L 165.078125 0 L 165.078125 -14.292969 Z M 221.839844 -14.292969 "/></g></g><g style="fill:#806600;fill-opacity:1;"><g transform="translate(768.399146, 705.439264)"><path style="stroke:none" d="M 189.234375 -61.789062 C 189.234375 -49.046875 186.953125 -37.671875 182.386719 -27.660156 C 177.675781 -17.332031 170.648438 -8.648438 161.300781 -1.609375 C 143.929688 11.472656 118.882812 18.015625 86.167969 18.015625 C 70.125 18.015625 56.324219 16.90625 44.765625 14.6875 C 33.089844 12.449219 22.128906 9.144531 11.882812 4.773438 L 3.199219 1.066406 L 3.199219 -77.796875 L 23.582031 -68.207031 C 33.296875 -63.632812 44.320312 -59.785156 56.644531 -56.660156 C 68.707031 -53.601562 79.167969 -52.074219 88.027344 -52.074219 C 92.269531 -52.074219 95.871094 -52.359375 98.839844 -52.933594 C 101.125 -53.371094 102.859375 -53.933594 104.042969 -54.621094 C 104.324219 -54.78125 104.53125 -54.925781 104.660156 -55.050781 C 104.652344 -55.046875 104.636719 -55.019531 104.609375 -54.96875 C 104.578125 -54.917969 104.5625 -54.890625 104.5625 -54.886719 C 104.605469 -55.0625 104.628906 -55.316406 104.628906 -55.644531 C 104.628906 -56.148438 104.59375 -56.492188 104.519531 -56.6875 C 104.542969 -56.625 104.570312 -56.578125 104.609375 -56.539062 C 102.921875 -58.261719 99.390625 -60.542969 94.011719 -63.382812 C 87.675781 -66.726562 79.113281 -70.675781 68.324219 -75.234375 C 51.226562 -82.390625 38.4375 -89.191406 29.964844 -95.632812 C 20.570312 -102.777344 13.671875 -111.113281 9.265625 -120.648438 C 4.972656 -129.933594 2.828125 -141.019531 2.828125 -153.910156 C 2.828125 -165.40625 5.125 -175.738281 9.714844 -184.902344 C 14.371094 -194.191406 21.257812 -202.054688 30.375 -208.488281 C 47.175781 -220.34375 70.242188 -226.269531 99.566406 -226.269531 C 126.71875 -226.269531 153.09375 -220.375 178.6875 -208.582031 L 191.214844 -202.808594 L 163.210938 -135.835938 L 149.953125 -141.515625 C 139.96875 -145.796875 130.675781 -149.292969 122.070312 -152.003906 C 114.414062 -154.414062 106.601562 -155.621094 98.636719 -155.621094 C 95.300781 -155.621094 92.484375 -155.414062 90.179688 -155 C 88.539062 -154.703125 87.34375 -154.351562 86.59375 -153.945312 C 86.539062 -153.917969 86.5 -153.894531 86.480469 -153.882812 C 86.515625 -153.90625 86.5625 -153.941406 86.613281 -153.992188 C 86.84375 -154.199219 87.058594 -154.460938 87.25 -154.773438 C 87.621094 -155.375 87.804688 -155.894531 87.804688 -156.332031 C 87.804688 -156.472656 87.777344 -156.589844 87.722656 -156.679688 C 88.019531 -156.199219 88.6875 -155.597656 89.722656 -154.882812 C 94.246094 -151.765625 105.132812 -146.742188 122.386719 -139.816406 C 139.824219 -132.761719 152.832031 -126.003906 161.398438 -119.539062 C 170.808594 -112.445312 177.8125 -104.140625 182.414062 -94.621094 C 186.960938 -85.210938 189.234375 -74.269531 189.234375 -61.789062 Z M 160.648438 -61.789062 C 160.648438 -69.902344 159.324219 -76.699219 156.675781 -82.179688 C 154.078125 -87.550781 149.917969 -92.394531 144.1875 -96.714844 C 137.621094 -101.667969 126.804688 -107.191406 111.738281 -113.289062 C 92.511719 -121.003906 79.765625 -127.023438 73.492188 -131.347656 C 69.132812 -134.355469 65.75 -137.820312 63.347656 -141.742188 C 60.59375 -146.238281 59.21875 -151.097656 59.21875 -156.332031 C 59.21875 -161.296875 60.449219 -165.777344 62.914062 -169.773438 C 65.300781 -173.640625 68.660156 -176.75 72.996094 -179.09375 C 79.304688 -182.503906 87.851562 -184.210938 98.636719 -184.210938 C 109.53125 -184.210938 120.207031 -182.5625 130.664062 -179.269531 C 140.171875 -176.273438 150.359375 -172.445312 161.214844 -167.792969 L 155.585938 -154.65625 L 142.398438 -160.167969 L 159.519531 -201.113281 L 172.707031 -195.597656 L 166.726562 -182.617188 C 144.925781 -192.660156 122.539062 -197.683594 99.566406 -197.683594 C 76.289062 -197.683594 58.71875 -193.496094 46.859375 -185.128906 C 41.648438 -181.453125 37.785156 -177.109375 35.273438 -172.097656 C 32.703125 -166.960938 31.414062 -160.898438 31.414062 -153.910156 C 31.414062 -145.210938 32.683594 -138.121094 35.214844 -132.644531 C 37.632812 -127.414062 41.648438 -122.664062 47.269531 -118.390625 C 53.808594 -113.417969 64.53125 -107.8125 79.445312 -101.570312 C 90.988281 -96.695312 100.292969 -92.394531 107.355469 -88.667969 C 115.375 -84.433594 121.273438 -80.386719 125.046875 -76.527344 C 130.492188 -70.957031 133.214844 -63.996094 133.214844 -55.644531 C 133.214844 -50.117188 131.9375 -45.132812 129.375 -40.691406 C 126.8125 -36.246094 123.140625 -32.640625 118.355469 -29.871094 C 110.992188 -25.613281 100.882812 -23.484375 88.027344 -23.484375 C 76.789062 -23.484375 63.988281 -25.308594 49.621094 -28.949219 C 35.519531 -32.523438 22.78125 -36.988281 11.40625 -42.339844 L 17.492188 -55.273438 L 31.789062 -55.273438 L 31.789062 -8.375 L 17.492188 -8.375 L 23.105469 -21.523438 C 31.46875 -17.953125 40.484375 -15.242188 50.152344 -13.386719 C 59.929688 -11.511719 71.9375 -10.570312 86.167969 -10.570312 C 112.507812 -10.570312 131.820312 -15.195312 144.101562 -24.445312 C 149.582031 -28.574219 153.671875 -33.597656 156.375 -39.523438 C 159.222656 -45.765625 160.648438 -53.1875 160.648438 -61.789062 Z M 160.648438 -61.789062 "/></g></g><g style="fill:#806600;fill-opacity:1;"><g transform="translate(957.84972, 705.439264)"><path style="stroke:none" d="M 117.433594 -55.796875 C 125.90625 -55.796875 136.394531 -57.75 148.902344 -61.660156 L 167.460938 -67.457031 L 167.460938 3.496094 L 159.003906 7.277344 C 143.003906 14.4375 123.6875 18.015625 101.054688 18.015625 C 74.117188 18.015625 54.046875 10.707031 40.847656 -3.914062 C 28.03125 -18.113281 21.625 -38.519531 21.625 -65.136719 L 21.625 -165.449219 L 35.917969 -165.449219 L 35.917969 -151.15625 L -5.546875 -151.15625 L -5.546875 -197.5 L 32.59375 -220.660156 L 40.011719 -208.441406 L 26.621094 -213.433594 L 46.464844 -266.65625 L 106.976562 -266.65625 L 106.976562 -208.066406 L 92.679688 -208.066406 L 92.679688 -222.363281 L 165.226562 -222.363281 L 165.226562 -151.15625 L 92.679688 -151.15625 L 92.679688 -165.449219 L 106.976562 -165.449219 L 106.976562 -65.136719 C 106.976562 -61.480469 107.558594 -59.15625 108.726562 -58.167969 C 110.589844 -56.585938 113.488281 -55.796875 117.433594 -55.796875 Z M 117.433594 -27.207031 C 106.488281 -27.207031 97.417969 -30.265625 90.222656 -36.375 C 86.089844 -39.886719 83.023438 -44.273438 81.019531 -49.542969 C 79.265625 -54.15625 78.386719 -59.355469 78.386719 -65.136719 L 78.386719 -179.742188 L 150.933594 -179.742188 L 150.933594 -165.449219 L 136.640625 -165.449219 L 136.640625 -208.066406 L 150.933594 -208.066406 L 150.933594 -193.773438 L 78.386719 -193.773438 L 78.386719 -252.363281 L 92.679688 -252.363281 L 92.679688 -238.066406 L 56.390625 -238.066406 L 56.390625 -252.363281 L 69.785156 -247.367188 L 51.671875 -198.796875 L 16.164062 -177.238281 L 8.746094 -189.457031 L 23.039062 -189.457031 L 23.039062 -165.449219 L 8.746094 -165.449219 L 8.746094 -179.742188 L 50.210938 -179.742188 L 50.210938 -65.136719 C 50.210938 -45.847656 54.164062 -31.828125 62.070312 -23.070312 C 69.589844 -14.738281 82.585938 -10.570312 101.054688 -10.570312 C 119.617188 -10.570312 135.042969 -13.320312 147.328125 -18.816406 L 153.167969 -5.769531 L 138.871094 -5.769531 L 138.871094 -48.015625 L 153.167969 -48.015625 L 157.429688 -34.371094 C 142.144531 -29.597656 128.8125 -27.207031 117.433594 -27.207031 Z M 117.433594 -27.207031 "/></g></g><g style="fill:#ffde59;fill-opacity:1;"><g transform="translate(39.070218, 705.439264)"><path style="stroke:none" d="M 149.8125 -227.984375 C 128.101562 -227.984375 111.289062 -219.820312 99.375 -203.5 C 87.46875 -187.1875 81.515625 -164.453125 81.515625 -135.296875 C 81.515625 -74.628906 104.28125 -44.296875 149.8125 -44.296875 C 168.914062 -44.296875 192.054688 -49.070312 219.234375 -58.625 L 219.234375 -10.234375 C 196.898438 -0.929688 171.960938 3.71875 144.421875 3.71875 C 104.835938 3.71875 74.5625 -8.28125 53.59375 -32.28125 C 32.625 -56.289062 22.140625 -90.753906 22.140625 -135.671875 C 22.140625 -163.953125 27.289062 -188.734375 37.59375 -210.015625 C 47.894531 -231.296875 62.691406 -247.609375 81.984375 -258.953125 C 101.273438 -270.304688 123.882812 -275.984375 149.8125 -275.984375 C 176.238281 -275.984375 202.789062 -269.597656 229.46875 -256.828125 L 210.859375 -209.921875 C 200.679688 -214.765625 190.441406 -218.984375 180.140625 -222.578125 C 169.847656 -226.179688 159.738281 -227.984375 149.8125 -227.984375 Z M 149.8125 -227.984375 "/></g></g><g style="fill:#ffde59;fill-opacity:1;"><g transform="translate(281.931763, 705.439264)"><path style="stroke:none" d="M 75 -104.40625 C 75 -83.8125 78.378906 -68.238281 85.140625 -57.6875 C 91.898438 -47.144531 102.910156 -41.875 118.171875 -41.875 C 133.304688 -41.875 144.191406 -47.113281 150.828125 -57.59375 C 157.472656 -68.082031 160.796875 -83.6875 160.796875 -104.40625 C 160.796875 -125 157.441406 -140.441406 150.734375 -150.734375 C 144.035156 -161.035156 133.054688 -166.1875 117.796875 -166.1875 C 102.660156 -166.1875 91.742188 -161.066406 85.046875 -150.828125 C 78.347656 -140.597656 75 -125.125 75 -104.40625 Z M 218.859375 -104.40625 C 218.859375 -70.53125 209.925781 -44.039062 192.0625 -24.9375 C 174.195312 -5.832031 149.320312 3.71875 117.4375 3.71875 C 97.457031 3.71875 79.835938 -0.648438 64.578125 -9.390625 C 49.316406 -18.140625 37.59375 -30.703125 29.40625 -47.078125 C 21.21875 -63.460938 17.125 -82.570312 17.125 -104.40625 C 17.125 -138.394531 25.992188 -164.816406 43.734375 -183.671875 C 61.472656 -202.535156 86.410156 -211.96875 118.546875 -211.96875 C 138.523438 -211.96875 156.144531 -207.625 171.40625 -198.9375 C 186.664062 -190.257812 198.390625 -177.789062 206.578125 -161.53125 C 214.765625 -145.28125 218.859375 -126.238281 218.859375 -104.40625 Z M 218.859375 -104.40625 "/></g></g><g style="fill:#ffde59;fill-opacity:1;"><g transform="translate(517.907527, 705.439264)"><path style="stroke:none" d="M 221.828125 0 L 165.078125 0 L 165.078125 -121.53125 C 165.078125 -136.539062 162.40625 -147.796875 157.0625 -155.296875 C 151.726562 -162.804688 143.234375 -166.5625 131.578125 -166.5625 C 115.691406 -166.5625 104.210938 -161.253906 97.140625 -150.640625 C 90.066406 -140.035156 86.53125 -122.453125 86.53125 -97.890625 L 86.53125 0 L 29.78125 0 L 29.78125 -208.0625 L 73.140625 -208.0625 L 80.765625 -181.453125 L 83.9375 -181.453125 C 90.257812 -191.503906 98.972656 -199.101562 110.078125 -204.25 C 121.179688 -209.394531 133.804688 -211.96875 147.953125 -211.96875 C 172.148438 -211.96875 190.507812 -205.421875 203.03125 -192.328125 C 215.5625 -179.242188 221.828125 -160.359375 221.828125 -135.671875 Z M 221.828125 0 "/></g></g><g style="fill:#ffde59;fill-opacity:1;"><g transform="translate(768.399146, 705.439264)"><path style="stroke:none" d="M 174.9375 -61.78125 C 174.9375 -40.445312 167.519531 -24.195312 152.6875 -13.03125 C 137.863281 -1.863281 115.691406 3.71875 86.171875 3.71875 C 71.035156 3.71875 58.128906 2.691406 47.453125 0.640625 C 36.785156 -1.398438 26.800781 -4.40625 17.5 -8.375 L 17.5 -55.265625 C 28.039062 -50.304688 39.914062 -46.148438 53.125 -42.796875 C 66.34375 -39.453125 77.976562 -37.78125 88.03125 -37.78125 C 108.625 -37.78125 118.921875 -43.734375 118.921875 -55.640625 C 118.921875 -60.109375 117.554688 -63.738281 114.828125 -66.53125 C 112.097656 -69.320312 107.378906 -72.484375 100.671875 -76.015625 C 93.972656 -79.554688 85.046875 -83.6875 73.890625 -88.40625 C 57.878906 -95.101562 46.117188 -101.304688 38.609375 -107.015625 C 31.109375 -112.722656 25.648438 -119.265625 22.234375 -126.640625 C 18.828125 -134.023438 17.125 -143.113281 17.125 -153.90625 C 17.125 -172.394531 24.285156 -186.691406 38.609375 -196.796875 C 52.941406 -206.910156 73.257812 -211.96875 99.5625 -211.96875 C 124.625 -211.96875 149.003906 -206.507812 172.703125 -195.59375 L 155.578125 -154.65625 C 145.160156 -159.125 135.421875 -162.78125 126.359375 -165.625 C 117.304688 -168.476562 108.066406 -169.90625 98.640625 -169.90625 C 81.890625 -169.90625 73.515625 -165.378906 73.515625 -156.328125 C 73.515625 -151.242188 76.210938 -146.835938 81.609375 -143.109375 C 87.003906 -139.390625 98.820312 -133.867188 117.0625 -126.546875 C 133.3125 -119.972656 145.21875 -113.832031 152.78125 -108.125 C 160.351562 -102.414062 165.9375 -95.835938 169.53125 -88.390625 C 173.132812 -80.953125 174.9375 -72.082031 174.9375 -61.78125 Z M 174.9375 -61.78125 "/></g></g><g style="fill:#ffde59;fill-opacity:1;"><g transform="translate(957.84972, 705.439264)"><path style="stroke:none" d="M 117.4375 -41.5 C 127.351562 -41.5 139.257812 -43.671875 153.15625 -48.015625 L 153.15625 -5.765625 C 139.019531 0.554688 121.648438 3.71875 101.046875 3.71875 C 78.347656 3.71875 61.816406 -2.015625 51.453125 -13.484375 C 41.097656 -24.960938 35.921875 -42.179688 35.921875 -65.140625 L 35.921875 -165.453125 L 8.75 -165.453125 L 8.75 -189.453125 L 40.015625 -208.4375 L 56.390625 -252.359375 L 92.6875 -252.359375 L 92.6875 -208.0625 L 150.9375 -208.0625 L 150.9375 -165.453125 L 92.6875 -165.453125 L 92.6875 -65.140625 C 92.6875 -57.078125 94.945312 -51.117188 99.46875 -47.265625 C 104 -43.421875 109.988281 -41.5 117.4375 -41.5 Z M 117.4375 -41.5 "/></g></g><g style="fill:#ffde59;fill-opacity:1;"><g transform="translate(1132.423685, 718.616469)"><path style="stroke:none" d="M 163.625 -249 C 139.914062 -249 121.554688 -240.085938 108.546875 -222.265625 C 95.535156 -204.441406 89.03125 -179.609375 89.03125 -147.765625 C 89.03125 -81.503906 113.894531 -48.375 163.625 -48.375 C 184.488281 -48.375 209.757812 -53.59375 239.4375 -64.03125 L 239.4375 -11.171875 C 215.050781 -1.015625 187.816406 4.0625 157.734375 4.0625 C 114.503906 4.0625 81.4375 -9.046875 58.53125 -35.265625 C 35.632812 -61.484375 24.1875 -99.117188 24.1875 -148.171875 C 24.1875 -179.066406 29.8125 -206.132812 41.0625 -229.375 C 52.3125 -252.613281 68.46875 -270.429688 89.53125 -282.828125 C 110.601562 -295.234375 135.300781 -301.4375 163.625 -301.4375 C 192.488281 -301.4375 221.488281 -294.457031 250.625 -280.5 L 230.296875 -229.28125 C 219.179688 -234.5625 208 -239.164062 196.75 -243.09375 C 185.507812 -247.03125 174.46875 -249 163.625 -249 Z M 163.625 -249 "/></g></g><g style="fill:#ffde59;fill-opacity:1;"><g transform="translate(1397.674008, 718.616469)"><path style="stroke:none" d="M 81.921875 -114.03125 C 81.921875 -91.53125 85.613281 -74.519531 93 -63 C 100.382812 -51.488281 112.410156 -45.734375 129.078125 -45.734375 C 145.609375 -45.734375 157.5 -51.457031 164.75 -62.90625 C 172 -74.351562 175.625 -91.394531 175.625 -114.03125 C 175.625 -136.519531 171.960938 -153.390625 164.640625 -164.640625 C 157.328125 -175.890625 145.335938 -181.515625 128.671875 -181.515625 C 112.128906 -181.515625 100.203125 -175.921875 92.890625 -164.734375 C 85.578125 -153.554688 81.921875 -136.65625 81.921875 -114.03125 Z M 239.03125 -114.03125 C 239.03125 -77.039062 229.273438 -48.109375 209.765625 -27.234375 C 190.253906 -6.367188 163.085938 4.0625 128.265625 4.0625 C 106.441406 4.0625 87.195312 -0.710938 70.53125 -10.265625 C 53.863281 -19.816406 41.054688 -33.535156 32.109375 -51.421875 C 23.171875 -69.304688 18.703125 -90.175781 18.703125 -114.03125 C 18.703125 -151.15625 28.390625 -180.015625 47.765625 -200.609375 C 67.140625 -221.210938 94.378906 -231.515625 129.484375 -231.515625 C 151.296875 -231.515625 170.535156 -226.769531 187.203125 -217.28125 C 203.867188 -207.800781 216.671875 -194.179688 225.609375 -176.421875 C 234.554688 -158.671875 239.03125 -137.875 239.03125 -114.03125 Z M 239.03125 -114.03125 "/></g></g><g style="fill:#ffde59;fill-opacity:1;"><g transform="translate(1655.403768, 718.616469)"><path style="stroke:none" d="M 242.28125 0 L 180.296875 0 L 180.296875 -132.734375 C 180.296875 -149.128906 177.378906 -161.425781 171.546875 -169.625 C 165.722656 -177.820312 156.441406 -181.921875 143.703125 -181.921875 C 126.359375 -181.921875 113.820312 -176.125 106.09375 -164.53125 C 98.375 -152.945312 94.515625 -133.742188 94.515625 -106.921875 L 94.515625 0 L 32.515625 0 L 32.515625 -227.25 L 79.875 -227.25 L 88.21875 -198.1875 L 91.671875 -198.1875 C 98.578125 -209.15625 108.09375 -217.453125 120.21875 -223.078125 C 132.351562 -228.703125 146.144531 -231.515625 161.59375 -231.515625 C 188.019531 -231.515625 208.070312 -224.363281 221.75 -210.0625 C 235.4375 -195.769531 242.28125 -175.140625 242.28125 -148.171875 Z M 242.28125 0 "/></g></g><g style="fill:#ffde59;fill-opacity:1;"><g transform="translate(1928.987562, 718.616469)"><path style="stroke:none" d="M 86.59375 0 L 0 -227.25 L 64.84375 -227.25 L 108.75 -97.765625 C 113.625 -81.367188 116.671875 -65.851562 117.890625 -51.21875 L 119.109375 -51.21875 C 119.785156 -64.226562 122.835938 -79.742188 128.265625 -97.765625 L 171.953125 -227.25 L 236.796875 -227.25 L 150.203125 0 Z M 86.59375 0 "/></g></g></g></svg>